<mxfile host="app.diagrams.net" agent="Mozilla/5.0 (Windows NT 10.0; Win64; x64) AppleWebKit/537.36 (KHTML, like Gecko) Chrome/135.0.0.0 Safari/537.36" version="26.2.13">
  <diagram name="Page-1" id="-8M5qc_XJgXojqNJt-C3">
    <mxGraphModel dx="1556" dy="855" grid="1" gridSize="10" guides="1" tooltips="1" connect="1" arrows="1" fold="1" page="1" pageScale="1" pageWidth="850" pageHeight="1100" math="0" shadow="0">
      <root>
        <mxCell id="0" />
        <mxCell id="1" parent="0" />
        <mxCell id="y1ulGAtnFWfHETWsTNIO-1" value="University" style="swimlane;fontStyle=0;align=center;verticalAlign=top;childLayout=stackLayout;horizontal=1;startSize=26;horizontalStack=0;resizeParent=1;resizeLast=0;collapsible=1;marginBottom=0;rounded=0;shadow=0;strokeWidth=1;" vertex="1" parent="1">
          <mxGeometry x="520" y="260" width="230" height="218" as="geometry">
            <mxRectangle x="230" y="140" width="160" height="26" as="alternateBounds" />
          </mxGeometry>
        </mxCell>
        <mxCell id="y1ulGAtnFWfHETWsTNIO-2" value="- name: string" style="text;align=left;verticalAlign=top;spacingLeft=4;spacingRight=4;overflow=hidden;rotatable=0;points=[[0,0.5],[1,0.5]];portConstraint=eastwest;" vertex="1" parent="y1ulGAtnFWfHETWsTNIO-1">
          <mxGeometry y="26" width="230" height="26" as="geometry" />
        </mxCell>
        <mxCell id="y1ulGAtnFWfHETWsTNIO-3" value="- location: string" style="text;align=left;verticalAlign=top;spacingLeft=4;spacingRight=4;overflow=hidden;rotatable=0;points=[[0,0.5],[1,0.5]];portConstraint=eastwest;rounded=0;shadow=0;html=0;" vertex="1" parent="y1ulGAtnFWfHETWsTNIO-1">
          <mxGeometry y="52" width="230" height="26" as="geometry" />
        </mxCell>
        <mxCell id="y1ulGAtnFWfHETWsTNIO-4" value="- gradebook : Gradebook*&#xa;" style="text;align=left;verticalAlign=top;spacingLeft=4;spacingRight=4;overflow=hidden;rotatable=0;points=[[0,0.5],[1,0.5]];portConstraint=eastwest;rounded=0;shadow=0;html=0;" vertex="1" parent="y1ulGAtnFWfHETWsTNIO-1">
          <mxGeometry y="78" width="230" height="22" as="geometry" />
        </mxCell>
        <mxCell id="y1ulGAtnFWfHETWsTNIO-5" value="" style="line;html=1;strokeWidth=1;align=left;verticalAlign=middle;spacingTop=-1;spacingLeft=3;spacingRight=3;rotatable=0;labelPosition=right;points=[];portConstraint=eastwest;" vertex="1" parent="y1ulGAtnFWfHETWsTNIO-1">
          <mxGeometry y="100" width="230" height="8" as="geometry" />
        </mxCell>
        <mxCell id="y1ulGAtnFWfHETWsTNIO-6" value="+ addCourse( id : int, name :string)" style="text;align=left;verticalAlign=top;spacingLeft=4;spacingRight=4;overflow=hidden;rotatable=0;points=[[0,0.5],[1,0.5]];portConstraint=eastwest;" vertex="1" parent="y1ulGAtnFWfHETWsTNIO-1">
          <mxGeometry y="108" width="230" height="20" as="geometry" />
        </mxCell>
        <mxCell id="y1ulGAtnFWfHETWsTNIO-7" value="+ get_gradebook() : Gradebook*" style="text;align=left;verticalAlign=top;spacingLeft=4;spacingRight=4;overflow=hidden;rotatable=0;points=[[0,0.5],[1,0.5]];portConstraint=eastwest;" vertex="1" parent="y1ulGAtnFWfHETWsTNIO-1">
          <mxGeometry y="128" width="230" height="30" as="geometry" />
        </mxCell>
        <mxCell id="y1ulGAtnFWfHETWsTNIO-8" value="+ get_courses() : std::vector&lt;Course&gt;" style="text;align=left;verticalAlign=top;spacingLeft=4;spacingRight=4;overflow=hidden;rotatable=0;points=[[0,0.5],[1,0.5]];portConstraint=eastwest;" vertex="1" parent="y1ulGAtnFWfHETWsTNIO-1">
          <mxGeometry y="158" width="230" height="20" as="geometry" />
        </mxCell>
        <mxCell id="y1ulGAtnFWfHETWsTNIO-9" value="Course" style="swimlane;fontStyle=0;align=center;verticalAlign=top;childLayout=stackLayout;horizontal=1;startSize=26;horizontalStack=0;resizeParent=1;resizeLast=0;collapsible=1;marginBottom=0;rounded=0;shadow=0;strokeWidth=1;" vertex="1" parent="1">
          <mxGeometry x="40" y="289" width="230" height="160" as="geometry">
            <mxRectangle x="230" y="140" width="160" height="26" as="alternateBounds" />
          </mxGeometry>
        </mxCell>
        <mxCell id="y1ulGAtnFWfHETWsTNIO-10" value="- name: string" style="text;align=left;verticalAlign=top;spacingLeft=4;spacingRight=4;overflow=hidden;rotatable=0;points=[[0,0.5],[1,0.5]];portConstraint=eastwest;" vertex="1" parent="y1ulGAtnFWfHETWsTNIO-9">
          <mxGeometry y="26" width="230" height="26" as="geometry" />
        </mxCell>
        <mxCell id="y1ulGAtnFWfHETWsTNIO-11" value="- id : int" style="text;align=left;verticalAlign=top;spacingLeft=4;spacingRight=4;overflow=hidden;rotatable=0;points=[[0,0.5],[1,0.5]];portConstraint=eastwest;rounded=0;shadow=0;html=0;" vertex="1" parent="y1ulGAtnFWfHETWsTNIO-9">
          <mxGeometry y="52" width="230" height="26" as="geometry" />
        </mxCell>
        <mxCell id="y1ulGAtnFWfHETWsTNIO-12" value="" style="line;html=1;strokeWidth=1;align=left;verticalAlign=middle;spacingTop=-1;spacingLeft=3;spacingRight=3;rotatable=0;labelPosition=right;points=[];portConstraint=eastwest;" vertex="1" parent="y1ulGAtnFWfHETWsTNIO-9">
          <mxGeometry y="78" width="230" height="8" as="geometry" />
        </mxCell>
        <mxCell id="y1ulGAtnFWfHETWsTNIO-13" value="+ addPerson(Person* p)" style="text;align=left;verticalAlign=top;spacingLeft=4;spacingRight=4;overflow=hidden;rotatable=0;points=[[0,0.5],[1,0.5]];portConstraint=eastwest;" vertex="1" parent="y1ulGAtnFWfHETWsTNIO-9">
          <mxGeometry y="86" width="230" height="20" as="geometry" />
        </mxCell>
        <mxCell id="y1ulGAtnFWfHETWsTNIO-14" value="+ get_persons() : std::vector&lt;Person*&gt;" style="text;align=left;verticalAlign=top;spacingLeft=4;spacingRight=4;overflow=hidden;rotatable=0;points=[[0,0.5],[1,0.5]];portConstraint=eastwest;" vertex="1" parent="y1ulGAtnFWfHETWsTNIO-9">
          <mxGeometry y="106" width="230" height="30" as="geometry" />
        </mxCell>
        <mxCell id="y1ulGAtnFWfHETWsTNIO-18" style="edgeStyle=orthogonalEdgeStyle;rounded=0;orthogonalLoop=1;jettySize=auto;html=1;exitX=0.5;exitY=0;exitDx=0;exitDy=0;fontSize=12;startSize=8;endSize=8;endArrow=diamond;endFill=1;" edge="1" parent="1" target="y1ulGAtnFWfHETWsTNIO-5">
          <mxGeometry relative="1" as="geometry">
            <mxPoint x="270" y="371" as="sourcePoint" />
            <mxPoint x="400" y="289" as="targetPoint" />
            <Array as="points">
              <mxPoint x="271" y="371" />
              <mxPoint x="271" y="364" />
            </Array>
          </mxGeometry>
        </mxCell>
        <mxCell id="y1ulGAtnFWfHETWsTNIO-19" value="1" style="text;html=1;align=center;verticalAlign=middle;resizable=0;points=[];autosize=1;strokeColor=none;fillColor=none;fontSize=16;" vertex="1" parent="1">
          <mxGeometry x="490" y="330" width="30" height="30" as="geometry" />
        </mxCell>
        <mxCell id="y1ulGAtnFWfHETWsTNIO-20" value="0..*" style="text;html=1;align=center;verticalAlign=middle;resizable=0;points=[];autosize=1;strokeColor=none;fillColor=none;fontSize=16;" vertex="1" parent="1">
          <mxGeometry x="260" y="340" width="50" height="30" as="geometry" />
        </mxCell>
      </root>
    </mxGraphModel>
  </diagram>
</mxfile>
